<svg xmlns="http://www.w3.org/2000/svg" viewBox="0 0 720 280" role="img" aria-label="Edit collection by set table">
  <rect width="720" height="280" fill="#fff"/>
  <rect x="20" y="16" width="200" height="28" fill="#f4f8fb" stroke="#d8e4ec"/>
  <text x="28" y="34" fill="#333" font-family="sans-serif" font-size="12">Catalog set ▼ 1953 Wheaties…</text>
  <rect x="20" y="56" width="680" height="24" fill="#4079a5"/>
  <text x="28" y="72" fill="#fff" font-family="sans-serif" font-size="10">Jurisdiction</text>
  <text x="120" y="72" fill="#fff" font-family="sans-serif" font-size="10">Items</text>
  <text x="200" y="72" fill="#fff" font-family="sans-serif" font-size="10">Want</text>
  <text x="260" y="72" fill="#fff" font-family="sans-serif" font-size="10">Storage</text>
  <text x="520" y="72" fill="#fff" font-family="sans-serif" font-size="10">Save row</text>
  <rect x="20" y="80" width="680" height="36" fill="#f4faf4" stroke="#d8e4ec"/>
  <text x="28" y="102" fill="#333" font-family="sans-serif" font-size="11" font-weight="600">KANSAS</text>
  <text x="120" y="102" fill="#333" font-family="sans-serif" font-size="11">1 · MT</text>
  <rect x="198" y="90" width="14" height="14" fill="#fff" stroke="#999"/>
  <text x="260" y="102" fill="#333" font-family="sans-serif" font-size="11">Binder A</text>
  <rect x="500" y="90" width="64" height="22" fill="#4079a5" rx="2"/>
  <text x="512" y="105" fill="#fff" font-family="sans-serif" font-size="10">Save row</text>
  <rect x="20" y="116" width="680" height="36" fill="#fff" stroke="#d8e4ec"/>
  <text x="28" y="138" fill="#333" font-family="sans-serif" font-size="11" font-weight="600">MAINE</text>
  <text x="120" y="138" fill="#999" font-family="sans-serif" font-size="11">—</text>
  <rect x="20" y="152" width="680" height="36" fill="#fff8f0" stroke="#d8e4ec"/>
  <text x="28" y="174" fill="#333" font-family="sans-serif" font-size="11" font-weight="600">TEXAS</text>
  <text x="200" y="174" fill="#c60" font-family="sans-serif" font-size="11">Want ✓</text>
  <text x="40" y="220" fill="#666" font-family="sans-serif" font-size="11">Green row = you own at least one item · Peach = want list</text>
</svg>
